{
	"asset":{
		"generator":"Khronos glTF Blender I/O v4.1.62",
		"version":"2.0"
	},
	"scene":0,
	"scenes":[
		{
			"name":"Scene",
			"nodes":[
				24
			]
		}
	],
	"nodes":[
		{
			"name":"head0_end",
			"rotation":[
				-5.9371814131736755e-09,
				5.844049155712128e-08,
				-6.05359717908982e-09,
				1
			],
			"scale":[
				1,
				0.9999999403953552,
				1
			],
			"translation":[
				2.384185791015625e-07,
				21.661392211914062,
				3.688037395477295e-07
			]
		},
		{
			"children":[
				0
			],
			"name":"head0",
			"rotation":[
				0.727177619934082,
				0.0532047338783741,
				0.09449880570173264,
				0.6778289079666138
			],
			"scale":[
				1,
				0.9999999403953552,
				0.9999998211860657
			],
			"translation":[
				2.3050233721733093e-07,
				2.906264066696167,
				-8.777715265750885e-08
			]
		},
		{
			"children":[
				1
			],
			"name":"neck1",
			"rotation":[
				2.7022903026363565e-08,
				-3.667082282277079e-08,
				1.0415531548346735e-08,
				1
			],
			"scale":[
				1.0000001192092896,
				1.0000001192092896,
				1.0000001192092896
			],
			"translation":[
				2.2025778889656067e-07,
				2.5149126052856445,
				6.135087460279465e-08
			]
		},
		{
			"children":[
				2
			],
			"name":"neck0",
			"rotation":[
				-0.2034851312637329,
				-0.016113881021738052,
				-0.07007228583097458,
				0.9764342904090881
			],
			"scale":[
				0.9999999403953552,
				1,
				0.9999998807907104
			],
			"translation":[
				-7.462222129106522e-08,
				20.1973934173584,
				-5.127876647748053e-07
			]
		},
		{
			"children":[
				3
			],
			"name":"body_top1",
			"rotation":[
				0.9910117983818054,
				0.003259630873799324,
				0.025012394413352013,
				0.13137485086917877
			],
			"scale":[
				0.9999999403953552,
				1,
				1.0000020265579224
			],
			"translation":[
				1.1175870895385742e-08,
				16.33761215209961,
				-6.94766640663147e-07
			]
		},
		{
			"children":[
				4
			],
			"name":"body_top0",
			"rotation":[
				0.9127954840660095,
				0.017494477331638336,
				0.01749446429312229,
				0.4076668918132782
			],
			"scale":[
				0.9999999403953552,
				1,
				1.0000001192092896
			],
			"translation":[
				3.129243850708008e-07,
				-1.0638103958626743e-05,
				1.2614482329809107e-05
			]
		},
		{
			"name":"leg_left_foot_end",
			"rotation":[
				4.768370445162873e-07,
				2.9017909494548355e-13,
				-1.3567563684948464e-14,
				1
			],
			"translation":[
				-1.55603117946157e-07,
				2.0000014305114746,
				-4.2688748180808034e-07
			]
		},
		{
			"children":[
				6
			],
			"name":"leg_left_foot",
			"rotation":[
				-0.5741325616836548,
				9.562422746967059e-07,
				9.918491059579537e-07,
				0.8187623620033264
			],
			"scale":[
				1,
				0.9999998807907104,
				1
			],
			"translation":[
				9.107006917474791e-07,
				3.819577932357788,
				5.142301233718172e-07
			]
		},
		{
			"children":[
				7
			],
			"name":"leg_left_bot0",
			"rotation":[
				-1.6668253977059067e-07,
				0.984925389289856,
				0.1729799062013626,
				1.3658946045325138e-06
			],
			"scale":[
				1,
				1.0000001192092896,
				1
			],
			"translation":[
				-3.865393694013619e-08,
				13.662002563476562,
				1.337134420964503e-07
			]
		},
		{
			"children":[
				8
			],
			"name":"leg_left_top1",
			"rotation":[
				-3.466156073272941e-08,
				0.0172235406935215,
				-0.2997869551181793,
				0.9538506865501404
			],
			"scale":[
				0.9999999403953552,
				1.0000001192092896,
				1
			],
			"translation":[
				-4.470348358154297e-07,
				16.655780792236328,
				-9.685754776000977e-08
			]
		},
		{
			"children":[
				9
			],
			"name":"leg_left_top0",
			"rotation":[
				-0.2241601198911667,
				-0.6744743585586548,
				-0.6744743585586548,
				0.19980236887931824
			],
			"scale":[
				1,
				1.0000001192092896,
				1
			],
			"translation":[
				0,
				5.675715328834485e-07,
				-2.170186519379058e-08
			]
		},
		{
			"name":"tail3_end",
			"rotation":[
				-1.1162774171680212e-07,
				-1.885928213596344e-08,
				3.026798367500305e-09,
				1
			],
			"translation":[
				-1.043081283569336e-07,
				4.885665416717529,
				-9.476207196712494e-08
			]
		},
		{
			"children":[
				11
			],
			"name":"tail3",
			"rotation":[
				-0.3419068455696106,
				0.09548221528530121,
				-0.04823432117700577,
				0.9336254000663757
			],
			"scale":[
				1.0000001192092896,
				1,
				1
			],
			"translation":[
				-5.997717380523682e-07,
				0.9442741870880127,
				-8.17934051156044e-06
			]
		},
		{
			"children":[
				12
			],
			"name":"tail2",
			"rotation":[
				-3.424938768148422e-07,
				1.7706770449876785e-07,
				-9.802170808370647e-08,
				1
			],
			"scale":[
				1,
				0.9999999403953552,
				1
			],
			"translation":[
				7.450580596923828e-07,
				0.9482312202453613,
				7.269904017448425e-06
			]
		},
		{
			"children":[
				13
			],
			"name":"tail1",
			"rotation":[
				-2.09687277674675e-06,
				-5.194451659917831e-07,
				7.031485438346863e-07,
				1
			],
			"translation":[
				-7.003545761108398e-07,
				0.6615023016929626,
				-1.7546117305755615e-06
			]
		},
		{
			"children":[
				14
			],
			"name":"tail0",
			"rotation":[
				0.3777509331703186,
				-0.10046949237585068,
				0.04856093227863312,
				0.9191582798957825
			],
			"scale":[
				1,
				1,
				0.9999999403953552
			],
			"translation":[
				2.9802322387695312e-08,
				32.60083770751953,
				4.079192876815796e-07
			]
		},
		{
			"children":[
				15
			],
			"name":"body_bot",
			"rotation":[
				0.9132125377655029,
				0.017487632110714912,
				0.01748763956129551,
				0.4067324101924896
			],
			"translation":[
				0,
				5.481007860907994e-07,
				0.10000012069940567
			]
		},
		{
			"name":"leg_right_foot_end",
			"rotation":[
				4.768373855768004e-07,
				-2.3841982965677744e-07,
				-2.384184796255795e-07,
				1
			],
			"scale":[
				1,
				1,
				0.9999999403953552
			],
			"translation":[
				-5.765375590272015e-07,
				2.0000030994415283,
				-1.1984341199422488e-06
			]
		},
		{
			"children":[
				17
			],
			"name":"leg_right_foot",
			"rotation":[
				-0.5741325616836548,
				2.478258011251455e-06,
				2.2199990326043917e-06,
				0.8187623620033264
			],
			"translation":[
				-4.5910383050795645e-07,
				3.8195807933807373,
				-7.135204214137048e-07
			]
		},
		{
			"children":[
				18
			],
			"name":"leg_right_bot0",
			"rotation":[
				-3.5379944307578626e-08,
				0.984925389289856,
				0.17297981679439545,
				3.0096657610556576e-06
			],
			"scale":[
				1,
				0.9999997615814209,
				1.0000001192092896
			],
			"translation":[
				5.124687163515773e-07,
				13.662010192871094,
				4.891844582743943e-07
			]
		},
		{
			"children":[
				19
			],
			"name":"leg_right_top1",
			"rotation":[
				-5.350506704360214e-09,
				-0.018198030069470406,
				0.2883778214454651,
				0.9573437571525574
			],
			"scale":[
				1,
				0.9999998807907104,
				0.9999999403953552
			],
			"translation":[
				-4.0978193283081055e-07,
				16.387657165527344,
				-1.7136335372924805e-07
			]
		},
		{
			"children":[
				20
			],
			"name":"leg_right_top0",
			"rotation":[
				-0.21678189933300018,
				0.6769441962242126,
				0.6769442558288574,
				0.19104605913162231
			],
			"scale":[
				1,
				1.0000001192092896,
				1
			],
			"translation":[
				0,
				5.675715328834485e-07,
				-2.170186519379058e-08
			]
		},
		{
			"children":[
				5,
				10,
				16,
				21
			],
			"name":"body",
			"rotation":[
				-2.980232594040899e-08,
				0,
				0,
				1
			],
			"scale":[
				1,
				0.9999999403953552,
				0.9999999403953552
			],
			"translation":[
				-0.23849999904632568,
				2.870499849319458,
				-2.9149999618530273
			]
		},
		{
			"mesh":0,
			"name":"Vibrant_Owl_Fantasy_0608204228_texture",
			"skin":0
		},
		{
			"children":[
				23,
				22
			],
			"name":"rig",
			"rotation":[
				0.7071068286895752,
				0,
				0,
				0.7071068286895752
			]
		}
	],
	"materials":[
		{
			"doubleSided":true,
			"name":"Material.001",
			"pbrMetallicRoughness":{
				"baseColorTexture":{
					"index":0
				},
				"metallicFactor":0,
				"roughnessFactor":0.5
			}
		}
	],
	"meshes":[
		{
			"name":"Vibrant_Owl_Fantasy_0608204228_texture",
			"primitives":[
				{
					"attributes":{
						"POSITION":0,
						"NORMAL":1,
						"TEXCOORD_0":2,
						"JOINTS_0":3,
						"WEIGHTS_0":4
					},
					"indices":5,
					"material":0
				}
			]
		}
	],
	"textures":[
		{
			"sampler":0,
			"source":0
		}
	],
	"images":[
		{
			"mimeType":"image/png",
			"name":"texture_0",
			"uri":"texture_0.png"
		}
	],
	"skins":[
		{
			"inverseBindMatrices":6,
			"joints":[
				22,
				5,
				4,
				3,
				2,
				1,
				0,
				10,
				9,
				8,
				7,
				6,
				16,
				15,
				14,
				13,
				12,
				11,
				21,
				20,
				19,
				18,
				17
			],
			"name":"rig"
		}
	],
	"accessors":[
		{
			"bufferView":0,
			"componentType":5126,
			"count":28751,
			"max":[
				31.20586395263672,
				29.576416015625,
				25.523122787475586
			],
			"min":[
				-31.20586395263672,
				-29.576416015625,
				-25.523120880126953
			],
			"type":"VEC3"
		},
		{
			"bufferView":1,
			"componentType":5126,
			"count":28751,
			"type":"VEC3"
		},
		{
			"bufferView":2,
			"componentType":5126,
			"count":28751,
			"type":"VEC2"
		},
		{
			"bufferView":3,
			"componentType":5121,
			"count":28751,
			"type":"VEC4"
		},
		{
			"bufferView":4,
			"componentType":5126,
			"count":28751,
			"type":"VEC4"
		},
		{
			"bufferView":5,
			"componentType":5123,
			"count":30000,
			"type":"SCALAR"
		},
		{
			"bufferView":6,
			"componentType":5126,
			"count":23,
			"type":"MAT4"
		}
	],
	"bufferViews":[
		{
			"buffer":0,
			"byteLength":345012,
			"byteOffset":0,
			"target":34962
		},
		{
			"buffer":0,
			"byteLength":345012,
			"byteOffset":345012,
			"target":34962
		},
		{
			"buffer":0,
			"byteLength":230008,
			"byteOffset":690024,
			"target":34962
		},
		{
			"buffer":0,
			"byteLength":115004,
			"byteOffset":920032,
			"target":34962
		},
		{
			"buffer":0,
			"byteLength":460016,
			"byteOffset":1035036,
			"target":34962
		},
		{
			"buffer":0,
			"byteLength":60000,
			"byteOffset":1495052,
			"target":34963
		},
		{
			"buffer":0,
			"byteLength":1472,
			"byteOffset":1555052
		}
	],
	"samplers":[
		{
			"magFilter":9729,
			"minFilter":9987
		}
	],
	"buffers":[
		{
			"byteLength":1556524,
			"uri":"Vibrant_Owl_Fantasy_0608204228_texture.bin"
		}
	]
}
